<svg id="Layer_1" data-name="Layer 1" xmlns="http://www.w3.org/2000/svg" viewBox="0 0 164.34 83.27"><defs><style>.cls-1{fill:#2e465d;}.cls-2{fill:#8cc63f;}.cls-3{fill:#4d9a0f;}.cls-4{fill:#2b7805;}</style></defs><polygon class="cls-1" points="23.89 82.69 16.47 71.52 9.9 82.69 0.13 82.69 11.91 64.64 0 46.73 10.29 46.73 17.64 57.83 24.29 46.73 34.05 46.73 22.2 64.64 34.18 82.69 23.89 82.69"/><path class="cls-1" d="M69.45,63.93a18.91,18.91,0,0,0-2.25-9.32,15.53,15.53,0,0,0-6.31-6.26,19,19,0,0,0-9.22-2.21,19.22,19.22,0,0,0-9.44,2.27,15.92,15.92,0,0,0-6.38,6.5,20.29,20.29,0,0,0-2.28,9.8,19.83,19.83,0,0,0,2.32,9.73A16.26,16.26,0,0,0,42.33,81a18.93,18.93,0,0,0,9.34,2.3,17.53,17.53,0,0,0,10.88-3.34,16.4,16.4,0,0,0,6-8.54H58.71a7.45,7.45,0,0,1-7.23,4.35,8.42,8.42,0,0,1-5.93-2.21,9,9,0,0,1-2.73-6.1H69.19A21.72,21.72,0,0,0,69.45,63.93Zm-26.56-2.6a9,9,0,0,1,2.83-5.68,8.29,8.29,0,0,1,5.69-2,9,9,0,0,1,6.06,2.11A7.16,7.16,0,0,1,60,61.33Z"/><path class="cls-1" d="M87.09,47.83a12.83,12.83,0,0,1,6.48-1.62v9.54H91.16q-4.29,0-6.48,2t-2.18,7V82.68H73.39v-36H82.5v5.58A12.86,12.86,0,0,1,87.09,47.83Z"/><path class="cls-1" d="M111.18,47.83a12.83,12.83,0,0,1,6.48-1.62v9.54h-2.41q-4.29,0-6.47,2t-2.19,7V82.68H97.48v-36h9.11v5.58A12.86,12.86,0,0,1,111.18,47.83Z"/><path class="cls-1" d="M142.21,81.68a14,14,0,0,1-5.57-4.32,10.82,10.82,0,0,1-2.24-6h9.18a5,5,0,0,0,2,3.44,7.11,7.11,0,0,0,4.46,1.36,7,7,0,0,0,4.07-1,3.15,3.15,0,0,0,1.46-2.66,2.81,2.81,0,0,0-1.79-2.63,34.09,34.09,0,0,0-5.7-1.91,49.22,49.22,0,0,1-6.61-2,11.51,11.51,0,0,1-4.42-3.19,8.48,8.48,0,0,1-1.86-5.77A9.22,9.22,0,0,1,137,51.47a11.5,11.5,0,0,1,4.94-3.9,18.66,18.66,0,0,1,7.59-1.43c4.3,0,7.72,1.07,10.29,3.22A11.88,11.88,0,0,1,164,58h-8.73a4.69,4.69,0,0,0-1.79-3.41,8.1,8.1,0,0,0-8.07-.35,2.88,2.88,0,0,0-1.33,2.53,3,3,0,0,0,1.82,2.76,28.81,28.81,0,0,0,5.66,1.91,48.39,48.39,0,0,1,6.45,2,11.33,11.33,0,0,1,4.39,3.22,8.76,8.76,0,0,1,1.92,5.74A9.48,9.48,0,0,1,162.62,78a11.31,11.31,0,0,1-5,3.86,18.79,18.79,0,0,1-7.52,1.4A19,19,0,0,1,142.21,81.68Z"/><rect class="cls-1" x="121.35" y="46.73" width="9.11" height="35.96"/><g id="leaves"><path class="cls-2" d="M138.74,25v6.58a3.25,3.25,0,0,1-3.24,3.24H125.4V28.22A3.25,3.25,0,0,1,128.64,25Zm4.07-4H128.45a7.12,7.12,0,0,0-7.12,7.12V38.77H135.7a7.11,7.11,0,0,0,7.11-7.12V21Z"/><path class="cls-3" d="M117.51,12.89v6.65a3.28,3.28,0,0,1-3.27,3.28H104V16.17a3.26,3.26,0,0,1,3.27-3.27Zm4-3.92H107.14A7.11,7.11,0,0,0,100,16.1V26.74h14.36a7.12,7.12,0,0,0,7.12-7.12V9Z"/><path class="cls-4" d="M145.5,3.92v6.65a3.27,3.27,0,0,1-3.28,3.27H132V7.2a3.28,3.28,0,0,1,3.28-3.28Zm4-3.92H135.14A7.11,7.11,0,0,0,128,7.12V17.77h14.36a7.1,7.1,0,0,0,7.11-7.12V0Z"/></g></svg>